<svg width="12" height="12" viewBox="0 0 12 12" fill="none" xmlns="http://www.w3.org/2000/svg">
<path fill-rule="evenodd" clip-rule="evenodd" d="M1.42772 0.244921C1.10108 -0.0816747 0.57152 -0.0816354 0.244922 0.245009C-0.081675 0.571654 -0.0816357 1.10121 0.24501 1.42781L4.81856 6.00065L0.24632 10.5722C-0.0803259 10.8988 -0.0803653 11.4283 0.246233 11.755C0.57283 12.0816 1.10239 12.0817 1.42903 11.7551L6.00145 7.18336L10.571 11.7522C10.8976 12.0788 11.4272 12.0787 11.7538 11.7521C12.0804 11.4255 12.0803 10.8959 11.7537 10.5693L7.18434 6.00065L11.755 1.4307C12.0816 1.1041 12.0817 0.574545 11.7551 0.2479C11.4285 -0.0787445 10.8989 -0.0787838 10.5723 0.247812L6.00145 4.81795L1.42772 0.244921Z" fill="black"/>
</svg>
